<?xml version="1.0" encoding="UTF-8"?>
<svg id="Illustration" xmlns="http://www.w3.org/2000/svg" xmlns:xlink="http://www.w3.org/1999/xlink" viewBox="0 0 600 400">
  <defs>
    <style>
      .cls-1 {
        fill: #ff6760;
      }

      .cls-2 {
        fill: #fff;
      }

      .cls-3 {
        fill: #fa7267;
      }

      .cls-4 {
        fill: #2f61c7;
      }

      .cls-5 {
        fill: #100259;
      }

      .cls-6 {
        fill: #0b0755;
      }

      .cls-7 {
        fill: #e57a7a;
      }

      .cls-8 {
        fill: #121266;
      }

      .cls-9 {
        fill: #bdd1f9;
      }

      .cls-10 {
        fill: #170b77;
      }

      .cls-11 {
        fill: #080435;
      }

      .cls-12 {
        fill: #ffa089;
      }

      .cls-13 {
        fill: #f96058;
      }

      .cls-14 {
        fill: #b8d0fc;
      }

      .cls-15 {
        fill: #ed806e;
      }

      .cls-16 {
        fill: #f9a58f;
      }

      .cls-17, .cls-18 {
        fill: none;
      }

      .cls-19 {
        fill: #2a7bdb;
      }

      .cls-20 {
        fill: #89b4fd;
      }

      .cls-21 {
        fill: #6888d6;
      }

      .cls-22 {
        fill: #f18b7b;
      }

      .cls-18 {
        clip-path: url(#clippath);
      }

      .cls-23 {
        fill: #dde7fe;
      }

      .cls-24 {
        fill: #fb9391;
      }

      .cls-25 {
        fill: #b5d1fa;
      }

      .cls-26 {
        fill: #6a9be2;
      }

      .cls-27 {
        fill: #7798f8;
      }

      .cls-28 {
        fill: #060633;
      }

      .cls-29 {
        fill: #0f0382;
      }

      .cls-30 {
        fill: #7c9af2;
      }
    </style>
    <clipPath id="clippath">
      <path class="cls-17" d="m514.51,347.56c-17.34,4.27-68.83,7.01-85.83,6.1l-351.31.15c-50.09-29.33-107.01-139.08-19.93-221.7,37.16-35.26,14.92-48.25,113.6-71.28,91.66-21.39,71.78,33.7,202.15-4.66,97.87-28.8,173.99,11.67,180.92,33.23,3.53,10.97,20.83,49.21,23.9,60.33,8.5,30.68-16.59,36.49-.95,70.61,16.35,35.68,25.47,105.53-62.55,127.22Z" />
    </clipPath>
  </defs>
  <g class="cls-18">
    <path class="cls-23" d="m514.51,347.56c-17.34,4.27-68.83,7.01-85.83,6.1l-351.31.15c-47.89-28.19-102.72-116.24,9.73-188.42,43.11-27.67-14.74-81.53,83.94-104.56,91.66-21.39,71.78,33.7,202.15-4.66,97.87-28.8,136.97,37.67,143.9,59.23,3.53,10.97,4.44,22.67,7.52,33.79,8.5,30.68,36.82,37.04,52.46,71.16,16.35,35.68,25.47,105.53-62.55,127.22Z" />
    <g>
      <path class="cls-25" d="m123.88,362.09s.06-.01.09-.02c.25-.09.38-.37.28-.62-23.87-64.93-44.77-110.52-58.86-128.38-.31-.4-.54-.68-.63-.83-.14-.23-.43-.3-.66-.16-.23.14-.3.43-.16.66.12.2.34.47.7.93,14.03,17.78,34.88,63.28,58.71,128.12.08.22.3.34.52.31Z" />
      <path class="cls-25" d="m56.16,230.21c1.66,2,9.62,5.37,10.19,4.9.57-.47-1.29-8.92-2.95-10.92-1.66-2-4.63-2.27-6.63-.61-2,1.66-2.27,4.63-.61,6.63Z" />
      <path class="cls-25" d="m71.47,235.67c-.61,2.59,1.53,11.17,2.27,11.34.74.17,6.49-6.54,7.1-9.13.61-2.59-.99-5.18-3.58-5.79-2.59-.61-5.18.99-5.79,3.58Z" />
      <path class="cls-25" d="m63.17,251.41c2.66.01,10.54-4.01,10.54-4.77,0-.76-7.84-4.85-10.5-4.86-2.66-.01-4.83,2.13-4.84,4.79-.01,2.66,2.13,4.83,4.79,4.84Z" />
      <path class="cls-25" d="m96.81,278.13c-1.49,4.21.54,18.92,1.74,19.34s12.02-9.75,13.5-13.96c1.49-4.21-.72-8.83-4.93-10.32-4.21-1.49-8.83.72-10.32,4.93Z" />
      <path class="cls-25" d="m80.12,302.89c4.44.5,18.31-4.79,18.45-6.05.14-1.27-12.2-9.51-16.64-10.01-4.44-.5-8.44,2.69-8.94,7.13-.5,4.44,2.69,8.44,7.13,8.94Z" />
      <path class="cls-25" d="m109.4,293.97c-2.91,4.62-4.45,22.73-3.13,23.56,1.32.83,16.97-8.4,19.88-13.02,2.91-4.62,1.52-10.73-3.11-13.64-4.63-2.91-10.73-1.52-13.64,3.11Z" />
      <path class="cls-25" d="m85.35,326.5c5.46.05,21.69-8.13,21.7-9.69.01-1.56-16.05-10.04-21.52-10.1-5.46-.05-9.93,4.34-9.99,9.8-.05,5.46,4.34,9.93,9.8,9.99Z" />
      <path class="cls-25" d="m117.87,315.1c-2.91,4.62-4.45,22.73-3.13,23.56,1.32.83,16.97-8.4,19.88-13.02,2.91-4.63,1.52-10.73-3.11-13.64-4.63-2.91-10.73-1.52-13.64,3.11Z" />
      <path class="cls-25" d="m93.82,347.63c5.46.05,21.69-8.13,21.7-9.69.01-1.56-16.05-10.04-21.52-10.1-5.46-.05-9.93,4.34-9.99,9.8-.05,5.46,4.34,9.93,9.8,9.99Z" />
      <path class="cls-25" d="m135.22,341.25c-4.45,3.17-12.77,19.32-11.87,20.59.9,1.27,18.89-1.3,23.34-4.47,4.45-3.17,5.49-9.35,2.32-13.8-3.17-4.45-9.35-5.49-13.8-2.32Z" />
      <path class="cls-25" d="m101.45,368.58c5.41.73,22.53-5.36,22.74-6.9.21-1.55-14.67-11.97-20.08-12.71-5.41-.73-10.4,3.06-11.13,8.47-.73,5.41,3.06,10.4,8.47,11.13Z" />
      <path class="cls-25" d="m79.29,248.9c-.62,2.63,1.56,11.35,2.31,11.53.75.18,6.6-6.65,7.22-9.28.62-2.63-1.01-5.27-3.64-5.89-2.63-.62-5.27,1.01-5.89,3.64Z" />
      <path class="cls-25" d="m71.22,265.03c2.7.01,10.71-4.07,10.71-4.85,0-.77-7.96-4.93-10.67-4.94-2.7-.01-4.9,2.17-4.92,4.87-.01,2.7,2.17,4.9,4.87,4.92Z" />
      <path class="cls-25" d="m88.05,261.09c-1.18,3.65.88,16.25,1.93,16.59,1.04.34,10.11-8.65,11.3-12.3,1.18-3.65-.82-7.57-4.47-8.76-3.65-1.18-7.57.82-8.76,4.47Z" />
      <path class="cls-25" d="m74.85,284.12c3.84.02,15.21-5.79,15.22-6.88,0-1.1-11.31-7-15.15-7.02-3.84-.02-6.97,3.08-6.98,6.92-.02,3.84,3.08,6.97,6.92,6.98Z" />
    </g>
    <g>
      <path class="cls-25" d="m486.84,382.34s-.07,0-.11-.02c-.28-.08-.45-.38-.36-.66,21.13-73.71,40.55-125.82,54.68-146.7.31-.46.54-.8.63-.97.13-.26.45-.37.71-.23.26.13.37.45.23.71-.12.23-.33.55-.69,1.08-14.07,20.8-33.43,72.79-54.53,146.4-.07.25-.31.4-.55.38Z" />
      <path class="cls-25" d="m551.04,231.05c-1.68,2.35-10.2,6.72-10.87,6.24-.67-.48.7-9.96,2.38-12.31,1.68-2.35,4.93-2.89,7.28-1.21,2.35,1.68,2.89,4.93,1.21,7.28Z" />
      <path class="cls-25" d="m534.55,238.33c.88,2.81-.79,12.47-1.59,12.73-.8.25-7.71-6.71-8.59-9.52s.68-5.81,3.49-6.7c2.81-.88,5.81.68,6.7,3.49Z" />
      <path class="cls-25" d="m545.01,255.06c-2.94.23-11.98-3.58-12.04-4.42-.07-.84,8.27-6,11.21-6.23,2.94-.23,5.51,1.97,5.74,4.91.23,2.94-1.97,5.51-4.91,5.74Z" />
      <path class="cls-25" d="m509.97,287.33c1.99,4.53.94,20.96-.36,21.53-1.29.57-14.08-9.8-16.06-14.34-1.99-4.53.08-9.82,4.62-11.8,4.53-1.99,9.82.08,11.8,4.62Z" />
      <path class="cls-25" d="m530.43,313.34c-4.86.91-20.63-3.81-20.89-5.2-.26-1.39,12.72-11.51,17.59-12.42,4.86-.91,9.55,2.29,10.46,7.15.91,4.86-2.29,9.55-7.15,10.46Z" />
      <path class="cls-25" d="m497.34,305.85c3.59,4.88,6.76,24.77,5.37,25.79-1.39,1.02-19.44-7.91-23.03-12.79-3.59-4.88-2.55-11.74,2.33-15.33,4.88-3.59,11.74-2.55,15.33,2.33Z" />
      <path class="cls-25" d="m526.56,339.87c-6.04.5-24.63-7.23-24.78-8.96-.14-1.72,16.93-12.4,22.97-12.9,6.04-.5,11.33,3.99,11.83,10.03.5,6.04-3.99,11.33-10.03,11.83Z" />
      <path class="cls-25" d="m489.69,329.9c3.59,4.88,6.76,24.77,5.37,25.79-1.39,1.02-19.44-7.91-23.03-12.79-3.59-4.88-2.55-11.74,2.33-15.33,4.88-3.59,11.74-2.55,15.33,2.33Z" />
      <path class="cls-25" d="m518.91,363.92c-6.04.5-24.63-7.23-24.78-8.96-.14-1.72,16.93-12.4,22.97-12.9,6.04-.5,11.33,3.99,11.83,10.03.5,6.04-3.99,11.33-10.03,11.83Z" />
      <path class="cls-25" d="m472.62,360.22c5.18,3.14,15.69,20.33,14.79,21.8-.9,1.48-20.99.09-26.17-3.05-5.18-3.14-6.83-9.89-3.69-15.07,3.14-5.18,9.89-6.83,15.07-3.69Z" />
      <path class="cls-25" d="m512.17,387.7c-5.93,1.25-25.35-4.1-25.7-5.79-.36-1.69,15.25-14.42,21.18-15.67,5.93-1.25,11.74,2.54,12.99,8.47,1.25,5.93-2.54,11.74-8.47,12.99Z" />
      <path class="cls-25" d="m526.97,253.59c.9,2.86-.8,12.67-1.62,12.93-.82.26-7.83-6.82-8.73-9.68-.9-2.86.69-5.9,3.55-6.8,2.86-.9,5.9.69,6.8,3.55Z" />
      <path class="cls-25" d="m537.21,270.76c-2.99.23-12.17-3.64-12.23-4.49-.07-.85,8.41-6.09,11.39-6.33,2.99-.23,5.6,2,5.83,4.99.23,2.99-2,5.6-4.99,5.83Z" />
      <path class="cls-25" d="m518.28,267.77c1.61,3.94.34,18.04-.79,18.5-1.13.46-11.88-8.74-13.49-12.68-1.61-3.94.29-8.44,4.23-10.05,3.94-1.61,8.44.29,10.04,4.23Z" />
      <path class="cls-25" d="m534.74,292.17c-4.24.33-17.29-5.17-17.38-6.38-.09-1.21,11.94-8.66,16.19-8.99,4.24-.33,7.95,2.84,8.28,7.09.33,4.24-2.84,7.95-7.09,8.28Z" />
    </g>
    <g>
      <path class="cls-25" d="m362.22,385.58s-.05,0-.08,0c-.21,0-.38-.19-.37-.4,2.13-55.36,6.77-95.27,13.09-112.36.14-.38.24-.65.27-.79.05-.21.26-.33.46-.29.21.05.33.25.29.46-.04.18-.14.44-.3.88-6.29,17.02-10.92,56.84-13.04,112.12,0,.19-.14.34-.32.36Z" />
      <path class="cls-25" d="m381.2,268.37c-.77,1.93-6,6.47-6.55,6.25-.55-.22-1.22-7.11-.45-9.05.77-1.93,2.96-2.88,4.9-2.11,1.93.77,2.88,2.96,2.11,4.9Z" />
      <path class="cls-25" d="m370.89,276.32c1.11,1.82,1.59,8.89,1.07,9.2-.52.32-6.56-3.38-7.67-5.2-1.11-1.82-.52-4.19,1.3-5.3,1.82-1.11,4.19-.52,5.3,1.3Z" />
      <path class="cls-25" d="m381.1,286.25c-2.02.67-9.02-.45-9.21-1.03-.19-.58,4.77-5.63,6.8-6.3,2.02-.67,4.2.43,4.87,2.46.67,2.02-.43,4.2-2.46,4.87Z" />
      <path class="cls-25" d="m362.08,314.93c2.17,2.84,4.27,14.55,3.46,15.17-.81.62-11.57-4.45-13.74-7.29-2.17-2.84-1.63-6.9,1.2-9.08,2.84-2.17,6.9-1.63,9.08,1.2Z" />
      <path class="cls-25" d="m380.92,329.66c-3.26,1.48-15.13.88-15.55-.05-.42-.93,6.94-10.27,10.2-11.74,3.26-1.48,7.09-.04,8.57,3.22,1.48,3.26.04,7.09-3.22,8.57Z" />
      <path class="cls-25" d="m356.41,330.11c3.36,2.8,9.01,16.21,8.21,17.17-.8.96-15.01-2.2-18.37-5.01-3.36-2.8-3.81-7.8-1.01-11.16,2.8-3.36,7.8-3.81,11.16-1.01Z" />
      <path class="cls-25" d="m382.78,348.94c-4.15,1.39-18.53-.83-18.93-2.02-.4-1.18,9.74-11.62,13.89-13.01,4.15-1.39,8.64.85,10.03,5,1.39,4.15-.85,8.64-5,10.03Z" />
      <path class="cls-25" d="m355.18,348.3c3.36,2.8,9.01,16.21,8.21,17.17s-15.01-2.2-18.37-5.01c-3.36-2.8-3.81-7.8-1.01-11.16,2.8-3.36,7.8-3.81,11.16-1.01Z" />
      <path class="cls-25" d="m381.55,367.13c-4.15,1.39-18.53-.83-18.93-2.02-.4-1.18,9.74-11.62,13.89-13.01,4.15-1.39,8.64.85,10.03,5,1.39,4.15-.85,8.64-5,10.03Z" />
      <path class="cls-25" d="m348.43,372.51c4.17,1.31,14.51,11.56,14.13,12.75-.37,1.19-14.71,3.68-18.89,2.37-4.17-1.31-6.49-5.76-5.18-9.94,1.31-4.17,5.76-6.49,9.94-5.18Z" />
      <path class="cls-25" d="m380.92,384.98c-3.94,1.9-18.49,1.49-19.03.37-.54-1.13,8.22-12.75,12.16-14.65,3.94-1.9,8.68-.24,10.58,3.7,1.9,3.94.24,8.68-3.7,10.58Z" />
      <path class="cls-25" d="m368.2,288.33c1.12,1.85,1.62,9.03,1.09,9.35-.53.32-6.67-3.43-7.79-5.29-1.12-1.85-.53-4.26,1.32-5.38s4.26-.53,5.38,1.32Z" />
      <path class="cls-25" d="m378.34,298.62c-2.06.68-9.16-.46-9.36-1.04-.19-.59,4.85-5.72,6.9-6.4,2.06-.68,4.27.44,4.95,2.5.68,2.06-.44,4.27-2.5,4.95Z" />
      <path class="cls-25" d="m364.54,299.78c1.81,2.49,3.35,12.6,2.63,13.11-.71.52-9.84-4.09-11.65-6.58-1.81-2.49-1.25-5.97,1.24-7.78,2.49-1.81,5.97-1.25,7.78,1.24Z" />
      <path class="cls-25" d="m380.3,314.06c-2.92.96-13.02-.65-13.29-1.48-.27-.83,6.89-8.13,9.81-9.1,2.92-.96,6.07.62,7.03,3.55.96,2.92-.62,6.07-3.55,7.03Z" />
    </g>
    <g>
      <path class="cls-16" d="m358.99,250.48s1.13,7.26.96,9.96c-.17,2.7,1.66,5.49.17,5.89-1.49.4-3.24-4.55-3.24-4.55,0,0-2.78,4.68-3.41,6.26-.63,1.58-2.49,4.08-3.67,3.68-1.19-.41,2.39-7.74,2.39-7.74,0,0-3.62,5.86-4.79,5.72-1.17-.14,2.34-8.31,2.34-8.31,0,0-3.55,6.45-4.28,6.7-.72.25-1.09-.68-.39-3.29.7-2.61,2.09-5.07,2.09-5.07,0,0-2.84,4.34-3.36,4.73-.52.4-1.54.55-.09-3.19,1.45-3.74,5.89-11.28,9.65-14.1l5.63,3.3Z" />
      <path class="cls-16" d="m387.97,391.03s-4.39,14.68-4.28,14.88c.11.2-1.03,1.98-1.03,1.98l-4.46.8-4.07-1.88s2.28-17.53,2.65-19.62c.66-3.84,11.21,3.84,11.21,3.84Z" />
      <polygon class="cls-28" points="405.55 251 373.4 403.28 384.44 403.04 434.12 288.44 444.65 401.33 453.12 374.51 470.9 250.05 446.94 237.15 405.55 251" />
      <path class="cls-16" d="m519.8,140.86s-3.11-6.64-3.71-9.28c-.6-2.64-3.13-4.78-1.81-5.6,1.32-.82,4.37,3.42,4.37,3.42,0,0,1.35-5.3,1.52-6.99.17-1.7,1.24-4.64,2.49-4.59,1.25.05-.13,8.12-.13,8.12,0,0,1.83-6.68,2.99-6.88,1.16-.2.08,8.65.08,8.65,0,0,1.6-7.22,2.22-7.67.62-.45,1.23.34,1.29,3.04.06,2.7-.58,5.47-.58,5.47,0,0,1.51-4.98,1.9-5.52.39-.53,1.32-.97.98,3.03-.34,4.01-2.49,12.53-5.3,16.32l-6.32-1.54Z" />
      <g>
        <path class="cls-16" d="m450.92,123.88h-.02c-.01-.2-.02-.41-.04-.62-.84-9.27-9.33-16-18.66-14.53-7.77,1.23-13.6,8.05-13.62,15.93,0,2.93.75,5.64,2.06,7.98,1.84,3.64,3.44,6.75,5.08,9.3,2.7,4.23,3.89,9.25,3.51,14.26l-.3,3.94c10.38,4.37,14.44-.95,14.44-.95l-.47-7.13c-.06-.93.6-1.75,1.52-1.89,0,0,.01,0,.02,0,12.2-1.92,6.97-20.75,6.47-26.29Z" />
        <polygon class="cls-28" points="417.31 127.44 422.67 137.96 425.55 137.11 426.02 122.87 417.31 127.44" />
        <path class="cls-16" d="m425.97,136.72c-.31-.5-.8-.85-1.36-1.02-1.15-.35-3.16-.66-4.38.81-1.8,2.16,2.66,7.05,6.35,4.08,0,0,1.02-1.23-.61-3.87Z" />
        <path class="cls-28" d="m447.76,117.85s2.46,1.42,3.92,11.16c0,0-.21-10.99-1.53-12.08-1.32-1.09-2.39.92-2.39.92Z" />
      </g>
      <path class="cls-2" d="m428.07,158.2h16.12l13.94,33.14v63.57s-18.11,8.79-41.97-2.7l6.95-74.39,4.96-19.61Z" />
      <path class="cls-8" d="m428.07,158.2s-18,8.1-22.78,14.72c-4.78,6.63-5.39,90.03-5.39,90.03l24.26,2.39,3.92-107.14Z" />
      <path class="cls-8" d="m444.18,158.2l7.7,1.21s5.79,6.04,7.44,8.32c4.78,6.63,13.04,95.21,13.04,95.21l-24.26,2.39-3.92-107.14Z" />
      <polygon class="cls-3" points="433.29 161.24 436.12 166.07 429.5 234.84 437.14 249.14 444.18 235.35 439.54 165.65 441.61 160.82 436.05 158.75 433.29 161.24" />
      <polygon class="cls-2" points="428.07 158.2 429.27 155.54 436.85 158.2 443.12 155.31 444.18 158.2 442.85 163.17 437.13 159.45 431.55 163.52 428.07 158.2" />
      <path class="cls-28" d="m422.81,108c.46-.47,1.32-.86,1.7-.32.16.22.16.51.14.77-.06.77-.24,1.54-.54,2.25,2.72-3.19,7.25-4.18,11.43-4.12,4.19.06,8.34.98,12.52.77,1.66-.08,3.64-.2,4.62,1.15.68.94.52,2.31-.16,3.25-.68.94-1.78,1.49-2.91,1.77.86-.36,1.95-.12,2.57.58.62.7.73,1.81.27,2.62-.71,1.25-2.36,1.52-3.78,1.64-4.54.37-9.11.5-13.67.39.66.54,1.33,1.07,1.99,1.61.23.18.46.38.57.65.15.37.02.8-.2,1.14-.56.87-1.63,1.29-2.66,1.36-1.03.07-2.05-.17-3.07-.33-1.49-.24-3-.35-4.51-.31-.31,0-.63.02-.92.16-.38.18-.63.54-.9.87-1.6,1.93-4.15,2.76-6.55,3.49-.75.23-1.73.37-2.15-.29-.16-.26-.18-.57-.19-.88-.12-3.62.76-7.27,2.52-10.43-.45.81-1.56,1.01-2.06.07-.64-1.2.87-2.2,1.72-2.69.78-.45,1.52-.55,2.09-1.3.91-1.19,1-2.69,2.12-3.85Z" />
      <polygon class="cls-28" points="418.58 162.55 423.36 182.27 418.58 184.27 425.62 225.14 428.07 158.2 418.58 162.55" />
      <polygon class="cls-28" points="451.88 159.41 448.89 182.27 453.67 184.27 446.63 225.14 444.18 158.2 451.88 159.41" />
      <path class="cls-8" d="m451.88,159.41s3.45.39,8.09,2.93c8.75,4.79,23.03,12.34,35.41,4.85,18.95-11.47,23.79-27.54,23.79-27.54l11.35,1.84s-1.97,38.39-25.07,50.18c-26.36,13.45-41.66,7.46-41.66,7.46l-9.28-35.88-2.63-3.84Z" />
      <path class="cls-8" d="m418.58,162.55s-6.65.5-15.31,7.5c-16.52,13.37-41.87,42.24-53.01,79.09l9.87,4.55s29.6-43.71,52.58-48.12l6.63-39.89-.76-3.13Z" />
      <g>
        <polygon class="cls-8" points="477.88 131.74 458.32 134.99 457.3 128.61 476.86 125.36 477.88 131.74" />
        <polygon class="cls-8" points="501.1 129.72 470.3 134.84 468.71 124.88 499.51 119.76 501.1 129.72" />
        <polygon class="cls-8" points="545.93 124.24 494.21 132.83 492.01 119.04 543.73 110.45 545.93 124.24" />
        <polygon class="cls-3" points="542.14 125.56 546.04 124.91 543.62 109.77 539.73 110.42 542.14 125.56" />
      </g>
    </g>
    <g>
      <path class="cls-24" d="m213.01,176.98s18.95,37.22,30.76,48.66c11.8,11.44,16.47,21.64,16.47,21.64l-5.5,3.95s-15.98-13.99-25.27-20.44c-9.3-6.45-28.34-38.02-28.34-38.02l11.89-15.79Z" />
      <path class="cls-8" d="m201.62,130.54c.7,3.96-.39,8.23,1.14,11.95,2.03,4.93,7.9,7.14,10.78,11.63,3.02,4.7,2.43,11.36,6.4,15.29,1.41,1.4,3.26,2.27,4.74,3.59,3.42,3.04,4.39,8.51,2.22,12.54-2.41,4.49-7.79,6.56-12.87,7.09-5.07.53-10.23-.12-15.27.68-5.12.81-9.97,3.09-15.14,3.48-7.16.55-14.27-2.66-19.5-7.58-5.23-4.92-8.75-11.41-11.27-18.13-.96-2.56-1.8-5.18-2.25-7.88-1.74-10.51,2.52-21.09,7.77-30.35,2.4-4.23,5.17-8.49,9.32-11.01,9.44-5.74,31.49-4.99,33.92,8.71Z" />
      <path class="cls-24" d="m149.76,190.58s-6.18,8.27-11.33,8.27-22.65-21.88-22.65-21.88l-4.12,6.63s14.67,31.99,28.06,32.24c13.39.26,23.43-14.67,23.17-15.45-.26-.77-8.75-9.82-8.75-9.82h-4.38Z" />
      <path class="cls-6" d="m164.43,237.35s-7.99,9.68-11.59,21.01c-3.6,11.33,7.14,99.57,7.14,99.57h15.96s7.29-73.56,7.29-74.62c0-1.92,7.01,30.56,16.1,53.56,12.44,31.46,33.54,61.65,33.54,61.65l12.33-5.14s-13.83-43.87-21.71-67.48c-6.42-19.24-5.56-40.76-9.38-57.26-3.46-14.95-7.5-26.52-12.16-31.29l-18.73,1.16-18.79-1.16Z" />
      <path class="cls-28" d="m164.43,232.33v5.02s9.53,9.27,37.52,0l.06-5.02-24.59-1.54-13,1.54Z" />
      <path class="cls-2" d="m173.95,171.78s-9.92-.37-14.96,3.11c-3.6,2.49-11.55,16.51-11.55,16.51l9.13,7.76s-2.18,8.46,6.32,12.71l1.54,20.47s15.96,9.27,37.59,0c0,0,2.95-29.86,4.4-28.28,3.45,3.77,5.22,5.86,5.22,5.86l14.12-15.32s-11.99-16.35-17.03-19.13c-6.7-3.7-21.11-4.55-21.11-4.55l-13.66.88Z" />
      <g>
        <path class="cls-24" d="m161.71,144.67s-1.32-2.01-2.37-1.2c-2.68,2.07.2,4.84,1.98,5.44l.39-4.24Z" />
        <path class="cls-24" d="m178.66,120.42c8.18.57,14.75,7.3,15.15,15.49.13,2.69-.4,5.25-1.43,7.53-2.28,5.68-4.16,10.25-6.49,13.58-2.36,3.37-3.46,7.47-2.89,11.55l.57,4.12c-9.53,4.71-13.68,2.64-13.68,2.64l.06-12.21h0c-10.28-1.27-8.82-20.24-8.79-25.85h.02c0-.21-.01-.42-.01-.63.04-9.39,7.99-16.89,17.51-16.22Z" />
        <path class="cls-8" d="m179.87,136.95c2.86,3.41,5.9,6.75,8.02,10.64.24.43,1.9,3.65,1.41,4.01,2.66-2,4.37-5,5.81-8,2.5-5.2,1.81-11.46-1.2-16.3-2.98-4.78-7.99-7.28-13.53-7.76-5.93-.51-12.42,1.45-16.07,6.39-3.43,4.63-3.61,10.51-4.02,16.03.47-6.19,8.81-10.77,13.81-12.93-.15.06,3.69,5.37,3.89,5.63.61.77,1.23,1.53,1.87,2.29Z" />
        <path class="cls-24" d="m187.38,148c.27-.53.73-.93,1.28-1.15,1.13-.45,3.12-.94,4.48.44,2,2.02-2.06,7.32-6.04,4.66,0,0-1.13-1.15.28-3.94Z" />
      </g>
      <path class="cls-30" d="m189.02,209.04c7.24,0,10.26-7.24,10.29-7.31.06-.14-.01-.29-.15-.35-.14-.06-.29.01-.35.15-.03.07-2.92,6.98-9.79,6.98s-9.56-5.02-9.58-5.07c-.07-.13-.23-.18-.36-.12-.13.07-.18.23-.12.36.03.05,2.84,5.36,10.06,5.36Z" />
      <path class="cls-30" d="m156.57,199.42c.13,0,.25-.1.27-.24,0-.05.63-4.88,4.37-8.4.11-.1.11-.27.01-.38-.1-.11-.27-.11-.38-.01-3.89,3.66-4.51,8.53-4.53,8.73-.02.15.09.28.23.3.01,0,.02,0,.03,0Z" />
      <path class="cls-9" d="m172.92,238.82c0,.77.18,1.49.51,2.14.78,1.53,2.38,2.59,4.21,2.59,1.64,0,3.09-.84,3.94-2.12.5-.75.78-1.65.78-2.61,0-.13,0-.25-.02-.37-.05-.73-.28-1.41-.63-2.01-.82-1.4-2.34-2.34-4.08-2.34-1.37,0-2.61.59-3.48,1.53-.57.62-.98,1.4-1.15,2.25-.06.31-.1.62-.1.95Zm7.25-.51c.03.16.05.33.05.51,0,1.42-1.16,2.58-2.58,2.58s-2.58-1.15-2.58-2.58c0-.29.05-.56.13-.81.34-1.03,1.31-1.77,2.44-1.77,1.25,0,2.29.89,2.53,2.07Z" />
      <path class="cls-24" d="m102.68,174.58c.66-1.34,3.55-1.33,3.95-2.76.49-.7.97-1.41,1.42-2.15.27-.45.48-.92.64-1.4,1.14,1.17,3.13,2.85,3.13,2.85,0,0-3.42-5.99-2.01-6.09,1.41-.1,3.89,4.19,5.06,6.33,3.77,6.89,3.3,9.32,3.3,9.32l-3.75,5.06c-3.64-1.14-8.42-5.13-10.86-7.64.6-.63-1.27-2.75-.88-3.53Z" />
      <g>
        <rect class="cls-13" x="124.86" y="140.84" width="4.28" height="17.92" transform="translate(230.6 316.64) rotate(-171.55)" />
        <rect class="cls-28" x="107.37" y="155.65" width="5.74" height="29.13" transform="translate(194.26 354.8) rotate(-171.54)" />
        <rect class="cls-19" x="102.6" y="138.88" width="22.41" height="17.92" transform="translate(204.63 310.8) rotate(-171.54)" />
        <path class="cls-13" d="m104.04,137.33s-21.09-2.77-34.82-16.08l-5.85,39.35s11.64-9.47,38.03-5.55l2.63-17.72Z" />
        <rect class="cls-6" x="65.07" y="120.95" width="1.23" height="39.78" transform="translate(109.94 289.81) rotate(-171.54)" />
      </g>
      <path class="cls-7" d="m107.93,167.31s4.21,4.97,3.59,5.65c-.62.68-4.76-2.43-4.72-2.36.05.07,3.82,4.02,3.31,5.21-.51,1.19-5.11-2.6-5.11-2.6,0,0,3.81,3.45,3.42,4.24-.39.79-4.4-2.1-4.61-1.83-.21.27,3.43,2.5,2.98,3.51-.45,1.01-5.69-1.94-5.75-3.18s1.17-1.57,1.17-1.57c0,0,.13-2.09,1.2-2.52,0,0,1.19-2.61,2.43-2.31,0,0,.02-2.51,2.09-2.22Z" />
    </g>
    <g>
      <path class="cls-22" d="m300.41,212.56s41.51,28.1,69.28,23.98c17.33-2.57.76-75.91.76-75.91l-12.06.18s2.5,51.79-1.67,51.03c-2.62-.48-34.66-20.1-34.66-20.1l-21.65,20.83Z" />
      <path class="cls-1" d="m285.27,117.13c-.76.65-1.48,1.34-2.17,2.06-5.62,5.98-5.25,16.37-13.04,20.4-5.57,2.88-12.25.46-18.51,0-4.62-.34-9.41.51-13.3,3.02-3.89,2.51-6.74,6.81-6.87,11.44-.14,4.54,2.23,8.81,2.61,13.33.35,4.13-1.04,8.37-3.77,11.49-2.91,3.33-7.09,5.25-10.53,8.04-3.44,2.78-6.3,7.24-4.96,11.46,1.44,4.52,6.94,6.6,8.9,10.92,2.1,4.65-.56,9.91-2.48,14.64-1.92,4.73-2.58,11.26,1.78,13.92,1.93,1.18,4.35,1.19,6.6.98,1.49-.14,3.07-.34,4.41.32.81.4,1.44,1.08,2.01,1.78,3.4,4.18,5.62,9.94,10.69,11.74,2.62.93,5.5.57,8.26.18,5.76-.82,11.81-1.85,16.28-5.57,7.75-6.46,8.05-18.57,14.76-26.1,5.35-6,13.82-8.05,21.82-8.83,8-.78,46.12,5.12,42.81-20.06-.89-6.77-9.66-11.88-11.03-18.57-1.11-5.42.93-10.67,1.01-16.07.08-5.29-2.37-10.49-4.47-15.26-4.23-9.65-11.08-23.78-20.6-29.1-9.43-5.27-22.17-3.02-30.21,3.82Z" />
      <path class="cls-10" d="m346.78,361.91c-12.6-.06-25.53-.12-38.45-.2-.05-3.44-.46-30.71-1.84-31.06-1.38-.34-8.86,27.24-9.87,30.99-13.9-.08-27.67-.17-40.89-.26-1.08-6.11-8.08-51.95,18.7-79.33l26.89,1.66,26.98-1.66s11.47,13.89,16.64,30.16c4.97,15.62,2.09,47.22,1.85,49.7Z" />
      <path class="cls-11" d="m328.28,274.85v7.21s-13.67,13.3-53.86,0l-.09-7.21,35.29-2.22,18.66,2.22Z" />
      <path class="cls-4" d="m314.62,187.92s13.54,3.05,20.76,8.04c5.17,3.57,16.41,11.9,16.41,11.9l-12.23,19.36s3.13,12.14-9.08,18.24l-2.21,29.38s-22.91,13.3-53.96,0c0,0-3.64-14.37-7.76-31.6-3.32-13.9-8.09-29.51-2.64-42.05,7.05-16.2,31.08-14.54,31.08-14.54l19.61,1.26Z" />
      <path class="cls-15" d="m326.83,146.79s1.92-2.86,3.42-1.68c3.82,3.01-.36,6.94-2.93,7.78l-.5-6.1Z" />
      <path class="cls-12" d="m302.88,111.72c-11.76.69-21.29,10.24-21.99,22-.23,3.87.49,7.54,1.93,10.83,3.18,8.19,5.81,14.79,9.11,19.6,3.34,4.88,4.84,10.78,3.97,16.62l-.88,5.9c13.6,6.91,19.61,1.26,19.61,1.26l.1-14.78h0c14.77-1.66,12.98-28.91,13.03-36.96h-.02c.01-.3.03-.6.03-.9.09-13.47-11.2-24.37-24.87-23.56Z" />
      <path class="cls-1" d="m300.88,135.42c-4.16,4.85-8.57,9.6-11.69,15.15-.34.61-2.79,5.2-2.09,5.74-3.79-2.92-6.19-7.25-8.22-11.58-3.51-7.5-2.41-16.48,1.98-23.38,4.35-6.82,11.59-10.33,19.54-10.92,8.53-.64,17.8,2.28,22.97,9.43,4.85,6.71,5.01,15.15,5.52,23.07-.57-8.89-12.48-15.6-19.62-18.78.21.09-5.38,7.64-5.67,8.01-.88,1.1-1.79,2.18-2.72,3.26Z" />
      <path class="cls-12" d="m289.93,151.16c-.37-.76-1.03-1.34-1.82-1.67-1.62-.66-4.47-1.4-6.44.56-2.9,2.86,2.85,10.54,8.6,6.78,0,0,1.65-1.63-.34-5.67Z" />
      <path class="cls-11" d="m322.94,146.98c.12-1.12-.7-2.13-1.83-2.25-1.12-.12-2.13.7-2.25,1.83-.12,1.12.7,2.13,1.83,2.25,1.12.12,2.13-.7,2.25-1.83Z" />
      <path class="cls-11" d="m303.61,149.02c.12-1.12-.7-2.13-1.83-2.25-1.12-.12-2.13.7-2.25,1.83-.12,1.12.7,2.13,1.83,2.25,1.12.12,2.13-.7,2.25-1.83Z" />
      <path class="cls-15" d="m312.77,156.88c2.42-.35,3.24-2.17,3.32-3.21.01-.18-.04-.36-.16-.51-2.15-2.66-1.9-6.54-1.9-6.58.03-.39-.27-.74-.66-.77-.39-.03-.74.27-.77.66-.01.18-.28,4.24,2.01,7.32-.15.56-.73,1.82-3.03,1.7-.4-.02-.73.28-.76.68-.02.39.28.73.68.76.47.03.89,0,1.27-.05Z" />
      <path class="cls-5" d="m339.57,227.61c-.19,0-.36-.14-.38-.34,0-.07-.9-7.01-6.27-12.06-.16-.15-.16-.39-.02-.54.15-.15.39-.16.54-.02,5.58,5.25,6.47,12.24,6.51,12.53.03.21-.12.4-.34.43-.02,0-.03,0-.05,0Z" />
      <path class="cls-14" d="m309.32,290.95c-3.74,0-6.78-3.04-6.78-6.78s3.04-6.78,6.78-6.78,6.78,3.04,6.78,6.78-3.04,6.78-6.78,6.78Zm0-10.48c-2.04,0-3.7,1.66-3.7,3.7s1.66,3.7,3.7,3.7,3.7-1.66,3.7-3.7-1.66-3.7-3.7-3.7Z" />
      <g>
        <g>
          <g>
            <polygon class="cls-5" points="347.01 142.74 335.91 144.37 335.91 156.29 347.01 157.64 347.01 142.74" />
            <ellipse class="cls-5" cx="336.47" cy="150.34" rx="4.99" ry="6" />
          </g>
          <g>
            <polygon class="cls-21" points="349.13 141.93 338.95 143.74 338.95 156.95 349.13 158.45 349.13 141.93" />
            <ellipse class="cls-21" cx="339.46" cy="150.35" rx="4.58" ry="6.65" />
          </g>
          <g>
            <polygon class="cls-4" points="369.36 136.18 352.1 139.24 352.1 161.65 369.36 164.2 369.36 136.18" />
            <ellipse class="cls-4" cx="352.96" cy="150.46" rx="7.77" ry="11.29" />
          </g>
          <g>
            <polygon class="cls-27" points="395.41 130.4 371.48 134.64 371.48 165.71 395.41 169.24 395.41 130.4" />
            <ellipse class="cls-27" cx="372.67" cy="150.19" rx="10.77" ry="15.65" />
          </g>
          <ellipse class="cls-4" cx="398.88" cy="150.06" rx="14.87" ry="20.99" />
          <polygon class="cls-4" points="405.77 129.06 398.68 129.06 397.89 171.05 405.77 171.05 405.77 129.06" />
          <ellipse class="cls-29" cx="405.77" cy="150.06" rx="14.87" ry="20.99" />
          <path class="cls-26" d="m416.99,150.06c0,3.6-.75,6.93-2.04,9.66h0c-2.03,4.32-5.39,7.15-9.18,7.15-6.2,0-11.22-7.52-11.22-16.8,0-6.89,2.77-12.81,6.73-15.4,0,0,0,0,0,0,1.38-.9,2.9-1.4,4.49-1.4,6.2,0,11.22,7.52,11.22,16.8Z" />
          <path class="cls-20" d="m416.99,150.06c0,3.6-.75,6.93-2.04,9.66h0c-1.38.9-2.9,1.4-4.49,1.4-6.2,0-11.22-7.52-11.22-16.8,0-3.59.75-6.93,2.04-9.66,0,0,0,0,0,0,1.38-.9,2.9-1.4,4.49-1.4,6.2,0,11.22,7.52,11.22,16.8Z" />
          <path class="cls-2" d="m415.07,154.37c-.06,0-.11,0-.17-.02-.48-.09-.8-.56-.7-1.04.12-.64.2-4.54-.94-8.51-.63-2.22-1.53-4.08-2.66-5.51-1.35-1.7-3.04-2.81-5.03-3.28-.48-.11-.77-.59-.66-1.07.11-.48.59-.77,1.07-.66,4.3,1.02,7.41,4.49,8.99,10.03,1.17,4.12,1.17,8.29.97,9.33-.08.42-.45.72-.87.72Z" />
        </g>
        <g>
          <g>
            <polygon class="cls-5" points="312.17 142.74 301.08 144.37 301.08 156.29 312.17 157.64 312.17 142.74" />
            <ellipse class="cls-5" cx="301.63" cy="150.34" rx="4.99" ry="6" />
          </g>
          <g>
            <polygon class="cls-21" points="314.29 141.93 304.12 143.74 304.12 156.95 314.29 158.45 314.29 141.93" />
            <ellipse class="cls-21" cx="304.63" cy="150.35" rx="4.58" ry="6.65" />
          </g>
          <g>
            <polygon class="cls-4" points="334.52 136.18 317.26 139.24 317.26 161.65 334.52 164.2 334.52 136.18" />
            <ellipse class="cls-4" cx="318.13" cy="150.46" rx="7.77" ry="11.29" />
          </g>
          <g>
            <polygon class="cls-27" points="360.57 130.4 336.64 134.64 336.64 165.71 360.57 169.24 360.57 130.4" />
            <ellipse class="cls-27" cx="337.84" cy="150.19" rx="10.77" ry="15.65" />
          </g>
          <ellipse class="cls-4" cx="364.04" cy="150.06" rx="14.87" ry="20.99" />
          <polygon class="cls-4" points="370.93 129.06 363.47 129.08 363.05 171.05 370.93 171.05 370.93 129.06" />
          <ellipse class="cls-29" cx="370.93" cy="150.06" rx="14.87" ry="20.99" />
          <path class="cls-26" d="m382.15,150.06c0,3.6-.75,6.93-2.04,9.66h0c-2.03,4.32-5.39,7.15-9.18,7.15-6.2,0-11.22-7.52-11.22-16.8,0-6.89,2.77-12.81,6.73-15.4,0,0,0,0,0,0,1.38-.9,2.9-1.4,4.49-1.4,6.2,0,11.22,7.52,11.22,16.8Z" />
          <path class="cls-20" d="m382.15,150.06c0,3.6-.75,6.93-2.04,9.66h0c-1.38.9-2.9,1.4-4.49,1.4-6.2,0-11.22-7.52-11.22-16.8,0-3.59.75-6.93,2.04-9.66,0,0,0,0,0,0,1.38-.9,2.9-1.4,4.49-1.4,6.2,0,11.22,7.52,11.22,16.8Z" />
          <path class="cls-2" d="m380.23,154.37c-.06,0-.11,0-.17-.02-.48-.09-.8-.56-.7-1.04.12-.64.2-4.54-.94-8.51-.63-2.22-1.53-4.08-2.66-5.51-1.35-1.7-3.04-2.81-5.03-3.28-.48-.11-.77-.59-.66-1.07.11-.48.59-.77,1.07-.66,4.3,1.02,7.41,4.49,8.99,10.03,1.17,4.12,1.17,8.29.97,9.33-.08.42-.45.72-.87.72Z" />
        </g>
      </g>
      <path class="cls-12" d="m339.55,178.35s6.95-13.56,6.73-16.76c-.23-3.2-2.16-12.51-2.11-14.05.05-1.55,2.1-9.44,1.59-10.86-.52-1.42-4.76,7.86-4.76,7.86,0,0,2.51-8.43,1.15-9.32-1.36-.89-4.84,7.92-4.84,7.92,0,0,2.82-8.46,1.37-8.86-1.45-.39-4.29,7.79-4.29,7.79,0,0,2.09-6.6.94-6.89-1.15-.29-6.33,10.1-4.97,14.5,3.2,10.4,1.16,23,1.16,23l8.05,5.67Z" />
      <path class="cls-12" d="m266.57,221.07s35.82,30.97,63.69,27.55c18.78-2.3,14.58-81.79,14.58-81.79l-12.87,1.35s-7.7,54.98-13.14,54.98c-2.67,0-32.92-22.99-32.92-22.99l-19.34,20.89Z" />
      <polygon class="cls-4" points="288.41 195.71 304.63 209.71 280.39 239.25 264.55 223.17 269.1 209.35 288.41 195.71" />
      <polygon class="cls-11" points="282.89 236.51 272.3 229.97 272.5 229.65 282.8 236.01 303.5 210.78 290.81 198.92 291.07 198.65 304.02 210.75 282.89 236.51" />
    </g>
  </g>
</svg>